<?xml version="1.0" encoding="UTF-8"?>
<svg version="1.1" viewBox="0 0 1392 1392" width="348" height="348" xmlns="http://www.w3.org/2000/svg">
<path transform="translate(566,382)" d="m0 0h235l77 2 2 6 2 11v28h13l30 4 4 3 2 12 1 32 21 2 29 3 2 2 3 36 1 11 25 1 17 2 2 1v158h51v56h56l1 1 1 7v23l-2 9-7 3-17 1h-30l1 3v50l-1 49-1 1-43 1v22l-2 25-3 6-2 2-257 1-5 5-1 49h-258l-1-1v-49h-94l-7-4-4-4-3-11-1-18-2-8-1-10-38-1-6-5-2-3-2-20-1-9-1-43-3-15-4-6-1-1h-21l-10-2-7-6-5-8-2-11-2-18v-9h-28l-11-3-3-6-2-12v-39l1-25 1-44 2-8 1-14 4-6 3-1 20-2 10-2 4-4 3-12 1-23 4-8 6-2 34-2 52-1 7-1 2-10 1-31 2-6 6-2 34-3 3-3 1-3 2-23 2-11 4-6 6-3 36-2 29-1h31v-9l1-11 1-25z" fill="#F"/>
<path transform="translate(566,429)" d="m0 0 151 1 6 3v51l-4 1h-48l-1 2-1 153 51 1 1 1v53h52l1 2v49l-53 1v50l-1 1h-51v53l51 1 2 1 1 48 10 1v1h-11v2l52 1-1 48-1 1h-262l-1-2v-46l-71-1h-6l-6-1-5 1-6-3-10-1v-26l1-22 1-2h102v-40l1-14 3-1 49 1 2 1-1-15v-37h54l-1-2-1-102-3-2h-48l-1-51-52-1-1-1-1-48-15-1h-17l-15 1-4-7-2-1-1-4v-39l4-4 8-1h47l50-1v-43l1-10z" fill="#FEF233"/>
<path transform="translate(776,734)" d="m0 0 2 1-1 12h296l7 1 1 1 1-12h1v15h56l1 1 1 7v23l-2 9-7 3-17 1h-30l1 3v50l-1 49-1 1-43 1v22l-2 25-3 6-2 2-257 1h-3l-2-4 1-42 1-4-3 1-44-1-5-1v-2l2-1-2-1v-48l-53-1-1-1v-49l1-4 52-1 52 1v-47l2-3v-13z" fill="#F"/>
<path transform="translate(879,390)" d="m0 0h1l2 11v28h13l8 1v1h-20l-1 18v28l3 6 46 1v49h56v156l-1 4-9 2-101 1-102-1v-54h-51l-2-1v-75l1-75-2-1 2-3h2v-2l48-1v-41l1-10 2-2 44-1h37l20 1 2 1z" fill="#FDFDFC"/>
<path transform="translate(304,589)" d="m0 0h185l20 1 1 2 1 50 52 1v104h-43l-9 1-1 49-3 1h-149l-7-2-1-49-28 1h-16l-4-1-1-2v-154z" fill="#FEFDEA"/>
<path transform="translate(511,797)" d="m0 0 51 1 2 1 1-2 1 2 3-2h91l7 1v2l2-2v53l51 1 2 1 1 48 10 1v1h-11v2l52 1-1 48-1 1h-262l-1-2v-46l-71-1h-6l-6-1-5 1-6-3-10-1v-26l1-22 1-2h102v-40l1-14z" fill="#F7AE21"/>
<path transform="translate(883,430)" d="m0 0 29 1 13 2 4 3 2 12 1 32 21 2 29 3 2 2 3 36 1 11 25 1 17 2 2 1v158h51v41l-1 13-9-2h-294l-2-1v-12l-1 3v11l-2 2v47l-2 1-51-1v-51l7-1h46l-1-50-52-1-1-53-51-1-1-4 2-15 5 5v3h2l1 2h28l6-2 2-6h3l1-2 3 4v14l53 1v54h115l88-1 9-1v-159h-46l-9-1-1-48-45-1-3-5-1-2v-28l1-18z" fill="#F"/>
<path transform="translate(776,734)" d="m0 0 2 1-1 12h296l7 1 1 1 1-12h1v15h56l1 1 1 7v23l-2 9-7 3-17 1-31 1-12 1h-298l-1-1v-46l2-3v-13z" fill="#EA5345"/>
<path transform="translate(723,798)" d="m0 0h51v51l-1 2h67l194 1 1 1 1 10v14l-1 26-3 3h-251l-6-3-2-2v-47l1-2h-46l-7-1 1-44z" fill="#EA5345"/>
<path transform="translate(566,429)" d="m0 0 151 1 6 3v51l-4 1h-48l-2 1v-2l-8-1h-95l-2 3-3 1v34l-2 10-5 4-3 1-35 1-5-2-1 6-12-2h-21l-15 1-4-7-2-1-1-4v-39l4-4 8-1h47l50-1v-43l1-10z" fill="#FEFEE9"/>
<path transform="translate(310,692)" d="m0 0h19l13 2 7 2 2 3 1 35 2 8 3 3h143l6-2 1-1 2-42 1-4 3-2 50 1v52h-43l-9 1-1 49-3 1h-149l-7-2-1-49-28 1h-16l-4-1-1-2v-48l2-3z" fill="#FEF132"/>
<path transform="translate(302,595)" d="m0 0h1l1 82 1 7 9-3 8-2 27-1 6 3 4 9 5 16 4 11 5 6 9 4 5 1h24l16-1h26l22 1 7 2h9l3-5 5-15 3-15 3-9 7-5 7-3 9-7 13-1 10 5 5 6 5 7 1-10h1v17l-1 1-49-1-3 1-2 46-3 3-10 1h-138l-5-6-1-6-1-35-3-3-9-2-11-1h-17l-7 1v6l-2-3z" fill="#FFFEDA"/>
<path transform="translate(608,640)" d="m0 0 6 1 2 2 1 104h-54v-105l5 1h35z" fill="#F"/>
<path transform="translate(883,430)" d="m0 0 29 1 13 2 4 3 2 12 1 32 21 2 29 3 2 2 3 36 1 10-11 1h-37l-9-1-1-48-45-1-3-5-1-2v-28l1-18z" fill="#F"/>
<path transform="translate(883,538)" d="m0 0h7l3 1 38 1 1 5-1 93-2 2-8 1h-33l-7-3-1-1v-70l1-24z" fill="#F"/>
<path transform="translate(461,487)" d="m0 0h1v45h10v-6l-4-7-2-5-1-1-2 14h-1v-21l1-5 1 3h4l1-12-1-4 47-1h46v34l-2 10-5 4-3 1-35 1-5-2-1 6-2-2v-3l-2-1-45-1-2-2v-42z" fill="#FFFEEA"/>
<path transform="translate(774,696)" d="m0 0h74v1l-10 2-4 1-30 3h-11l-8 3-5-1 1 12v10l5 10-1 9-6 2-2-1v-12l-1 3v11l-2 2v47l-2 1-51-1v-51l7-1h46l-1-49z" fill="#F"/>
<path transform="translate(670,622)" d="m0 0 5 5v3h2l1 2h28l6-2 2-6h3l1-2 3 4v14l53 1v54h-53l-1-53-51-1-1-4z" fill="#292421"/>
<path transform="translate(566,429)" d="m0 0 151 1 6 3v51l-4 1h-48l-2 1-1-3 1-2 9-1 15 1 10-1v-1l11-1 2-3h-2-7l-3-2 2-5 7-5h2l-1-6-7-14 1-4 3-1h-143v36l-1 9-3 3-4 1-40 1h-16l-35 1 1 7-2 8h-4l-1 2v13l2-7 3 3 4 10 1 1v5l3 2h-14l-1-1v-44l-1 5v39l1 1 46 1 2 6-15-1h-17l-15 1-4-7-2-1-1-4v-39l4-4 8-1h47l50-1v-43l1-10z" fill="#FEFDEC"/>
<path transform="translate(520,746)" d="m0 0h41l2 1v50h-37l-7-1 2-3h-4v3l-5-1-2-13v-34l1-1z" fill="#F"/>
<path transform="translate(1084,752)" d="m0 0h55l1 1 1 7v23l-2 9-7 3-17 1h-30l3-6 1-5 1-31h-5z" fill="#F"/>
<path transform="translate(323,684)" d="m0 0h12l12 2 5 3 2 2 5 19v26l2 2 17 1 14 1h106l2-12 3-15 3-17 4-6 4-2 15-2h18l10 5 5 3v2l-49-1-3 1-2 46-3 3-10 1h-138l-5-6-1-6-1-35-3-3-9-2-11-1h-17l-6 1v-7z" fill="#FFF9C0"/>
<path transform="translate(608,640)" d="m0 0 6 1 2 2 1 104h-54v-105l5 1h35zm-27 8-11 3-4 4-1 9 1 9 2 21v41l2 2 1 6-1 2h32l-2-1-1-8h7l1-1 1-31v-44l-1-9-5-1-10-1z" fill="#201B17"/>
<path transform="translate(462,804)" d="m0 0h46v46l-1 1h-42l-31-1-9-1-3 1h-8l-1-3 1-3h10v2l21-4h39l12-3 3-5 2-3 1-7h1l1 7-1 3 1-1 1-14h-2l-2-3v-4l-12-3h-11l-6-1-1 2-1-2-9 1h-15v-1l-22-1h-8l-1-2z" fill="#F"/>
<path transform="translate(754,647)" d="m0 0 6 1 2 2v3h3v2h3v8l1 9h2l1-3 1 1v24h-1v-17h-4l-2 1-3 6h-6v-4l2-2-5 1h-14v1h8l5-1v2l3 1-5 2-10 1-5-1h-6l-2-5 4 1h2l2-5 1-5h-2v-2l-2 2v2h-2l-2 5 2 1h-3v-19l2-6 6-2v-3h4l4 4 3-1 1-2z" fill="#F"/>
<path transform="translate(467,484)" d="m0 0h93l-2 3-38 1h-16l-35 1 1 7-2 8h-4l-1 2v13l2-7 3 3 4 10 1 1v5l3 2h-14l-1-1v-44l-1 5v39l1 1 46 1 2 6-15-1h-17l-15 1-4-7-2-1-1-4v-39l4-4z" fill="#FDFDFB"/>
<path transform="translate(581,648)" d="m0 0 11 1h6l4 1 5 1 1 11v42l-2-3v-29l-1-16h-2l-2-3h-8l-2 1h-7l-1 2-7-1-1 4-1 5h-2v8h2v5h-2l1 10h-2l1 4 1 3 2-2v3 13l-1 7-1 5-2 1 3 2v4 6l2 1v2l9-1h13l2 4v5l2 1h-32l1-4-2-5-1-1v-41l-1-14-1-7v-6l-1-5 1-7 4-4z" fill="#F"/>
<path transform="translate(721,747)" d="m0 0h51v28h-1l-1-14-2-2-9-1v-2l-7-1h-15v2l-4 2h-3l1 2 7-1 6-2 16 1 2 2-3 1-5-1h-11v3l-9 1-1 3h-2v16h-3l2 7-2 5-7 2z" fill="#28221F"/>
<path transform="translate(701,432)" d="m0 0h14l2 2 1 4v42l-2 2-20 1h-14l-10-1v-1l6-1 15 1 10-1v-1l11-1 2-3h-2-7l-3-2 2-5 7-5h2l-1-6-7-14 1-4 3-1h-143l-1 17h-1v-19l1-1 8-1 53-1 15 1h31l6-1z" fill="#FDFDFC"/>
<path transform="translate(738,963)" d="m0 0h30l1 45-3 1-253-1v-3h251v-38l-10 2h-10l-2-2-21-1-7-1v-1z" fill="#211C19"/>
<path transform="translate(521,747)" d="m0 0h42v50h-9l-8-1v-3l7-1 2-4 1-7-1-3-1-10-2-4-5-5-3-4h-2v3h-6l-2-4h-9v-3l-4 1-1-4z" fill="#F"/>
<path transform="translate(774,696)" d="m0 0h74v1l-10 2-4 1-30 3h-11l-8 3-5-1 1 12v10l5 10-1 9-6 2-2-1v-14h-3l-1-36z" fill="#F"/>
<path transform="translate(554,487)" d="m0 0h7v34l-2 10-5 4-3 1-35 1-5-2v-3l11-2 16-3 9-4 4-11 3-14 2-10z" fill="#FFF9C0"/>
<path transform="translate(461,487)" d="m0 0h1v45h14l34-1 7-6 12-5 8-4 6-5 7-14 2-8-1-2 5 1v7l-3 13-4 13-4 4-11 4-18 3h-5l-1 9-2-2v-3l-2-1-45-1-2-2v-42z" fill="#FFFED9"/>
<path transform="translate(517,590)" d="m0 0h46v46l-2 2-18-1-12-2v-1l16-3 5-1 3-5v-21l-1-3h-2l-2-4-7-4-12-2v3h-2v2l-5 1-7 1-1-5z" fill="#F"/>
<path transform="translate(567,474)" d="m0 0 1 3 9-2h61l18 2 12 3 2 1-2 3-7-1h-92l-2-1z" fill="#FFF9C0"/>
<path transform="translate(301,697)" d="m0 0 2 3 1 40 2 3 44 1 6 6 1 3v40l1 2 63 1v1l-53 1h-10l-7-2-1-49-28 1h-16l-4-1-1-2z" fill="#F7AE21"/>
<path transform="translate(670,622)" d="m0 0 5 5v3h2l1 2h28l6-2 2-6h3l1-2 3 4v14l53 1v1l-32 1h-16l-6-1-51-1-1-4z" fill="#F"/>
<path transform="translate(609,469)" d="m0 0h32l17 3 8 5 20 2 18 1v1l-12 1-15-1-6 1-5-1-12-3-19-2h-58l-9 1v-3l12-4z" fill="#FFFFDA"/>
<path transform="translate(819,429)" d="m0 0h37l20 1 1 5 1 39 4 9 2 1 45 2v1h-29l-18-1-5-2-1-2-1-49h-93l-5 1-2 9-1 42-2 1h-47v-1l46-1 1-6v-36l1-10 2-2z" fill="#FEFDF0"/>
<path transform="translate(723,854)" d="m0 0 2 2v3h5l1 2-2 6-1 1v9l5 13 2 2 19 2 6-1h7l2 4-2 4-44 1z" fill="#F"/>
<path transform="translate(629,964)" d="m0 0h79l-2 2h-11l-4 1-6-1-4 2-17 1-1 1h-7v-2l-2 2-21-1-32 1-5-1-7 1-4-1h-21l-5-2 3-2h23z" fill="#F"/>
<path transform="translate(721,641)" d="m0 0 5 1h48l-1 12-2 2-2-1-2-7-8-1-10-1-6 2-3-2-10-1-1 2-1 16-2 8h-2l1 9h2l2 8v6h-7l-1-1z" fill="#1E1814"/>
<path transform="translate(302,590)" d="m0 0 164 1-2 2-112 1v-1h-17l-30 1-1 83h-1l-1 6h-1v-92z" fill="#FDFDFC"/>
<path transform="translate(1035,947)" d="m0 0 1 4-2 1h-254v-1l24-1h143l71-1z" fill="#26211E"/>
<path transform="translate(942,535)" d="m0 0 4 1 1-1 2 1 34 2 3 3v152h-7l3-4 1-3 1-91v-44l-1-7-3-2-47-1-1 2v-5l2-2h7z" fill="#FEFDEA"/>
<path transform="translate(513 1e3)" d="m0 0h195l4 2-8 1h-191z" fill="#F"/>
<path transform="translate(879,390)" d="m0 0h1l2 11v28h13l8 1v1h-20l-1 18v28l3 6 46 1-2 3-45-2-3-2-4-9-1-43h2z" fill="#FDFDFC"/>
<path transform="translate(304,589)" d="m0 0h185l5 1v2h-28l-162-1z" fill="#FEFDF2"/>
<path transform="translate(462,804)" d="m0 0h46v15l-3 1-4-4v-4l-12-3h-11l-6-1-1 2-1-2-9 1h-15v-1l-22-1h-8l-1-2z" fill="#F"/>
<path transform="translate(564,666)" d="m0 0 3 1v9l2 18v41l2 2 2 7 27 1v1h-36z" fill="#1C1613"/>
<path transform="translate(669,802)" d="m0 0h50l1 6-3 2h-5l2-2-4-1-1 1-18 1-3 1-14 1v7l-1 2h-2l-2-7z" fill="#F"/>
<path transform="translate(547,762)" d="m0 0 5 1 3 5 1 11 1 5-2 7-2 2-7 1-1 3h-19l-7-1 4-4 10-1 11-2 2-3 4-2-1-4-4-9 1-5z" fill="#F"/>
<path transform="translate(1030,539)" d="m0 0h1v155h-1l-1-10v-20l-1-57v-60l-4-6z" fill="#F"/>
<path transform="translate(730,644)" d="m0 0 10 1 4 2 6-2 14 1 4 2 1 7 3-1 1-9h1v50l-2-1v-24l-1 2h-2l-1-2v-7l-2-1h2v-7h-3v-2h-3l-2-4h-2v-2l-6 2h-4l-1 3-4 1-3-3v-2h-4v3l-6 3-1 5h-1v-12z" fill="#25201D"/>
<path transform="translate(539,747)" d="m0 0h24v50l-7-1 2-4 1-3v-16l-1-8h-2l-4-9-4-7-9-1z" fill="#1E1815"/>
<path transform="translate(584,654)" d="m0 0 4 1-3 3-1 2h-4v2h-2l2 9 3 5 1 4-5 2 1 6 2 1-4 6-4 1v-2l-2 1v-3l-2-2 3-9-2-1 3-8h-2l-1-4 3-9 2-4h7z" fill="#F"/>
<path transform="translate(838,696)" d="m0 0h10v1l-10 2-4 1-30 3h-11l-8 3-5-1v-5l3-1-1-2h34z" fill="#F"/>
<path transform="translate(721,747)" d="m0 0h51v5h-6l-5-2-1 2h-2v-2l-10-1h-3v4h-11l-6 1-2 4-3 8h-1l-1-5z" fill="#1C1613"/>
<path transform="translate(743,758)" d="m0 0 17 1 2 2-3 1-5-1h-11v3l-9 1-1 3h-2v16h-3l-1 3-3-1v-12l1-4h2l-1-4 5-5 7-1z" fill="#F"/>
<path transform="translate(880,534)" d="m0 0 3 1-3 7-2 1v44l1 49 3 5 2 1h43l3-2 1-5h1v6l-3 3h-48l-4-4-1-49v-51l4-2z" fill="#FFFEEA"/>
<path transform="translate(720,637)" d="m0 0 1 3 53 1v1l-32 1h-16l-6-1-51-1 3-2 4-1h26l18 1z" fill="#332F2C"/>
<path transform="translate(742,642)" d="m0 0h32l-1 12-2 2-2-1-2-7-8-1-10-1-6 2-3-2-6-1v-2z" fill="#1C1613"/>
<path transform="translate(412,589)" d="m0 0h77l5 1v2h-28l-55-1z" fill="#FEFDEF"/>
<path transform="translate(738,963)" d="m0 0h28l-1 7-1-3-10 2h-10l-2-2-21-1-7-1v-1z" fill="#2A2420"/>
<path transform="translate(461,487)" d="m0 0h1v45l48 1v8l-2-2v-3l-2-1-45-1-2-2v-42z" fill="#FFFEEA"/>
<path transform="translate(730,644)" d="m0 0 10 1 4 2 6-2 11 1 1 4-4-1v-2l-6 2h-4l-1 3-4 1-3-3v-2h-4v3l-6 3-1 5h-1v-12z" fill="#F"/>
<path transform="translate(1030,539)" d="m0 0h1v64l-2-3-1-53-4-6z" fill="#1C1613"/>
<path transform="translate(521,747)" d="m0 0h18l3 3 1 4-1 1v3h-6l-2-4h-9v-3l-4 1-1-4z" fill="#302820"/>
<path transform="translate(875,435)" d="m0 0h2l1 39 4 9 2 1 45 2v1h-29l-18-1-5-2-1-2z" fill="#FFFEEA"/>
<path transform="translate(517,590)" d="m0 0h29l1 4-16-3v3h-2v2l-5 1-7 1-1-5z" fill="#F"/>
<path transform="translate(779,706)" d="m0 0h1l1 11v10l5 10v5l-2 1-1-5-3-2-3-9-1-7v-8z" fill="#F"/>
<path transform="translate(752,754)" d="m0 0 5 1 3 3v1h-17l-5 2h-7l-1 3v-5l7-2v-2z" fill="#F"/>
<path transform="translate(774,439)" d="m0 0 1 4-1 42-2 1h-47v-1l46-1 1-6v-36z" fill="#FEFDEC"/>
<path transform="translate(567,641)" d="m0 0h39l-3 3h-38l2-1z" fill="#35312D"/>
<path transform="translate(721,761)" d="m0 0h1l1 25h5l2 5-2 5-7 2z" fill="#2B2621"/>
<path transform="translate(766,963)" d="m0 0h2l1 45-3 1-3-2 3-2-1-39-2-2z" fill="#1C1613"/>
<path transform="translate(513,965)" d="m0 0h37l1 2-2 1-22 1-10-1h-4z" fill="#2F2720"/>
<path transform="translate(512,778)" d="m0 0 4 1 2 8v4l-2 1 2 3-4 1-2-1-1-13z" fill="#F"/>
<path transform="translate(696,846)" d="m0 0h6l2 1v2h2v-2l4-1 2 2 3-1v2l3 1-3 2h-8l-10-2-6-1v-2l5 1z" fill="#F"/>
<path transform="translate(879,390)" d="m0 0h1l2 11v27l-2-3-1-7z" fill="#FEFDED"/>
<path transform="translate(293,712)" d="m0 0h1v30l-1 5-4 1v-3l1-5 1-12 2-3h-2z" fill="#302820"/>
<path transform="translate(728,679)" d="m0 0 4 1h3v2l13-2 5-1v2l3 1-5 2-10 1-5-1h-6z" fill="#F"/>
<path transform="translate(413,909)" d="m0 0h35l2 3h-16l-21-1z" fill="#F"/>
<path transform="translate(672,843)" d="m0 0 10 3 2 4-2 1h-11l-2-5z" fill="#F"/>
<path transform="translate(506,832)" d="m0 0h1v19h-8l3-8 2-2v-3z" fill="#F"/>
<path transform="translate(347,764)" d="m0 0h1v26l-2-1-2-15 1-8z" fill="#F"/>
<path transform="translate(733,668)" d="m0 0h2v2h2v5l-3 7-6-3 3-7h2l-1-3z" fill="#F"/>
<path transform="translate(1030,539)" d="m0 0h1v23l-2 1-1-16-4-6z" fill="#201B18"/>
<path transform="translate(476,908)" d="m0 0h32l-1 6h-3l-4-4h-20l-2 2-3-3z" fill="#F"/>
<path transform="translate(507,819)" d="m0 0h1v31h-1l-1-17h-1v-13z" fill="#F"/>
<path transform="translate(984,497)" d="m0 0h1l2 26 1 10-3-1-1-7z" fill="#FDFDF4"/>
<path transform="translate(1038,899)" d="m0 0h1v38h-1l-1-18-1-12z" fill="#25201D"/>
<path transform="translate(670,802)" d="m0 0h6l2 1-2 5-3 1v2h-3z" fill="#F"/>
<path transform="translate(758,677)" d="m0 0 2 2-3 1v4l-4-1 2-1-2-1v-2l-5 2h-9l-1-3h19z" fill="#F"/>
<path transform="translate(762,761)" d="m0 0 3 2 1 7 3 2v7l-3-1-3-8-2-8z" fill="#F"/>
<path transform="translate(809,677)" d="m0 0 9 1v4l-10 2v-6z" fill="#FFFEEA"/>
<path transform="translate(717,431)" d="m0 0 6 2v21h-1v-15l-3 1z" fill="#FDFDFD"/>
<path transform="translate(553,468)" d="m0 0 3 1 1 6-1 1h-9l1-3 4-1z" fill="#26201D"/>
<path transform="translate(722,455)" d="m0 0h1v29l-4 1-9-1v-1h11z" fill="#FDFDFD"/>
<path transform="translate(989,541)" d="m0 0 21 1-4 2-16 1z" fill="#F"/>
<path transform="translate(576,742)" d="m0 0 7 1 6 1v-2h6v2l3 1h-24l2-1z" fill="#F"/>
<path transform="translate(513,630)" d="m0 0 3 2 2-1v2h6l2 1v2h-10l-3 1-1-5z" fill="#F"/>
<path transform="translate(503,543)" d="m0 0h5l1 1v8l-2-2h-3l-2-3z" fill="#292420"/>
<path transform="translate(511,749)" d="m0 0h3l2 5v4 2l-4 1-1-4z" fill="#F"/>
<path transform="translate(523,590)" d="m0 0h23l1 4-9-2h-12z" fill="#F"/>
<path transform="translate(1084,752)" d="m0 0h17l-1 3h-6l-2 1-8-3z" fill="#F"/>
<path transform="translate(674,638)" d="m0 0h22v1l-20 2h-7l3-2z" fill="#F"/>
<path transform="translate(458,908)" d="m0 0h14l2 2-10 1-9-1z" fill="#F"/>
<path transform="translate(940,481)" d="m0 0 23 2-1 2-21-1z" fill="#FDFDF4"/>
<path transform="translate(774,733)" d="m0 0 3 1-1 4v11l-4 1v-3l-2-1h4z" fill="#F"/>
<path transform="translate(562,628)" d="m0 0h1v8l-2 2-5-1 1-4 4-1z" fill="#F"/>
<path transform="translate(769,686)" d="m0 0 3 1v7h-3v-3h-3l2-4z" fill="#F"/>
<path transform="translate(765,638)" d="m0 0 4 1-3 2h-22v-1l20-1z" fill="#F"/>
<path transform="translate(506,956)" d="m0 0 4 1v2h-18v-1z" fill="#F"/>
<path transform="translate(1035,947)" d="m0 0 1 4-2 1h-9l4-3z" fill="#F"/>
<path transform="translate(502,908)" d="m0 0h6l-1 6h-3l-4-5z" fill="#F"/>
<path transform="translate(1110,792)" d="m0 0h10l-4 2-1 1h-12l4-2z" fill="#F"/>
<path transform="translate(343,750)" d="m0 0 5 1v5l-4-1-2-4z" fill="#F"/>
<path transform="translate(672,486)" d="m0 0h3l-3 9-2-1 1-7z" fill="#F"/>
</svg>
